<?xml version="1.0" standalone="no"?>
<!DOCTYPE svg PUBLIC "-//W3C//DTD SVG 20010904//EN"
 "http://www.w3.org/TR/2001/REC-SVG-20010904/DTD/svg10.dtd">
<svg version="1.0" xmlns="http://www.w3.org/2000/svg"
 width="260.000000pt" height="260.000000pt" viewBox="0 0 260.000000 260.000000"
 preserveAspectRatio="xMidYMid meet">
<metadata>
Created by potrace 1.14, written by Peter Selinger 2001-2017
</metadata>
<g transform="translate(0.000000,260.000000) scale(0.100000,-0.100000)"
fill="#000000" stroke="none">
<path d="M1867 2524 c-1 -1 -56 -4 -122 -8 -66 -3 -147 -9 -180 -12 -88 -9
-371 -55 -395 -64 -3 -1 -8 -2 -12 -1 -4 0 -59 -13 -122 -29 -219 -57 -469
-161 -566 -236 -52 -41 -100 -107 -100 -139 0 -50 71 -105 135 -105 29 0 45 8
78 41 23 23 65 56 92 74 46 29 231 112 265 119 8 2 24 6 35 10 63 24 163 52
215 61 19 3 67 12 105 20 93 18 130 24 190 30 28 3 57 8 65 10 40 11 193 19
355 19 165 0 205 -2 289 -19 36 -7 92 -37 131 -69 26 -21 30 -30 29 -73 -1
-62 -33 -119 -119 -206 -114 -115 -391 -284 -615 -375 -76 -31 -491 -173 -543
-186 -27 -6 -25 -3 30 66 32 40 60 75 63 78 3 3 39 48 80 100 41 52 77 97 80
100 3 3 21 25 40 50 19 25 41 52 50 60 20 20 129 153 156 191 15 21 21 42 19
68 -6 70 -41 103 -111 103 -50 0 -94 -23 -117 -61 -9 -14 -29 -40 -44 -58 -39
-44 -61 -69 -118 -138 -28 -33 -60 -71 -72 -85 -12 -14 -81 -99 -153 -190
-198 -249 -213 -266 -318 -394 -46 -56 -93 -112 -105 -126 -103 -120 -318
-429 -394 -565 -67 -122 -128 -255 -153 -336 -7 -24 0 -50 29 -109 24 -47 112
-71 188 -51 21 6 53 13 70 16 18 3 70 17 115 32 46 15 85 27 88 28 27 5 166
57 249 92 444 189 781 438 889 658 28 58 32 84 24 177 -3 26 -79 116 -115 135
-17 10 -50 25 -71 34 -22 9 -35 18 -30 21 7 4 107 39 124 43 3 1 19 7 35 13
17 7 68 27 115 44 202 76 474 233 633 366 209 173 285 353 214 503 -60 128
-203 219 -387 248 -100 16 -304 32 -313 25z m-523 -1428 c30 -9 63 -24 75 -33
l22 -18 -26 -52 c-40 -80 -224 -246 -370 -333 -22 -13 -42 -26 -45 -29 -8 -9
-97 -58 -180 -99 -41 -20 -78 -41 -81 -45 -3 -5 -9 -8 -13 -8 -3 1 -23 -6 -44
-15 -20 -9 -75 -31 -122 -49 -47 -17 -94 -36 -105 -40 -11 -4 -24 -9 -30 -11
-5 -1 -32 -9 -60 -18 -67 -21 -66 -21 -47 21 51 112 159 283 301 473 146 197
191 249 214 244 11 -2 41 1 66 7 25 6 75 13 111 16 36 3 66 7 68 8 10 9 221
-6 266 -19z"/>
</g>
</svg>
